<svg version="1.0" xmlns="http://www.w3.org/2000/svg" width="436" height="436" viewBox="0 0 327 327"><path d="M116.2 122.2c-.5.7-1.2 2.9-1.5 4.8-1.9 13.3-10.1 47-13.8 56.2-5.4 13.7-7.3 11.7-17.9-18.2-10.3-28.9-15.1-37-21.9-37-6.3 0-10.7 6.5-16.1 24-7.2 23.3-12.5 27.9-20.9 18.4-4.8-5.4-12.6-20.8-17.9-35.3-2.1-5.8-4.4-10.7-5.2-10.9-1.7-.6-.8 3.9 3.7 18.8 8 26.5 17.3 41.8 25.5 42.2 5.4.2 7-.4 10.6-4 4.4-4.5 8-11.6 12.8-25.5 2-5.6 4.4-11.1 5.4-12.1 1.9-1.9 2-1.9 3.9-.1 2.1 1.8 5.5 9.9 12.3 29.5 9 25.6 15.6 34.2 23.4 30.4 5.5-2.7 10.2-12.4 14.3-29.6 2.3-9.4 2.4-9.9 5.1-25.8 4.2-24.9 4.2-27 .5-27-.7 0-1.7.6-2.3 1.2zm64.4.5c-.6 2.3-.6 77.2.1 79.5.6 2.4 5 2.3 6.3-.1 1-1.9 1.1-1.9 5.6.6 11.8 6.6 25.6-1.7 28.4-17 2.5-13.1-3.4-25.6-13.7-29.2-4.2-1.5-13.1-1.2-16.3.5-2.4 1.3-2.2 2.8-2.4-18.5 0-8.3-.5-15.6-.9-16.3-1.3-1.9-6.5-1.5-7.1.5zm27.8 44.2c7.1 6.7 6 23.3-1.8 28.4-4.3 2.9-10.1 2.2-14.2-1.6l-3.6-3.3-.1-11.8c-.2-11.6-.2-11.8 2.3-13.2 4-2.3 14.3-1.4 17.4 1.5zm26.9-42.7c-4.8 2.3-3.1 10.8 2.2 10.8 5.3 0 7.6-7.4 3.3-10.4-2.6-1.8-2.6-1.8-5.5-.4zM142 156.1c-12.2 3.6-18.8 19.6-14 33.9 2.1 6.4 9 13.3 14.1 14.4 7.8 1.5 19.1-.7 22.5-4.5 1.5-1.7 1.5-2 0-4.4-2-3-2.1-3-7.1-.5-5.8 2.9-12.5 2.7-16.5-.6-3.4-2.9-6-7.3-6-10.1 0-1.8 1.1-1.9 15.5-1.8 8.5.1 16-.2 16.5-.5 3.2-2 1.1-13.5-3.4-19.4-4.4-5.9-14-8.7-21.6-6.5zm14.1 10.8c3.9 3.8 5 7.5 2.7 8.3-.7.2-6.2.3-12.3.3-9.4 0-11-.3-11.3-1.7-.9-4.5 6.8-10.8 13.2-10.8 3.1 0 4.5.7 7.7 3.9zm113.7-9.2l-5.7 2.9-.6-2.3c-.6-2.4-3.5-2.7-5.5-.7-.7.7-.9 9.4-.8 23.5l.3 22.4 3.2.3c2.3.2 3.4-.2 4-1.5.5-1 .8-8.6.8-16.8-.2-12.4.1-15.3 1.4-16.9 3.7-4.3 11.4-6.1 16-3.7 3.9 2.1 4.6 5 5.1 22.1l.5 16.5 3.8.3c4.3.4 3.9 2.4 3.9-19.3.1-12.6.3-15.2 1.7-16.3 7.4-5.9 15.9-5.8 19.3.1.8 1.4 1.5 8 1.8 18.7l.5 16.5h7V185c0-17.8-.1-18.6-2.4-22.4-5.7-9.1-19.6-9.8-28.8-1.3-1.3 1.1-2.3 1.5-2.3.9 0-2.2-7.7-6.3-12.6-6.8-4-.5-5.9 0-10.6 2.3zm-34.6-.8c-.9.6-1.2 6.1-1 23.7l.3 22.9h7l.3-23.3c.1-12.7-.1-23.2-.5-23.3-.5 0-1.7-.2-2.8-.4-1.1-.2-2.6-.1-3.3.4z"/></svg>