<svg id="Слой_1" xmlns="http://www.w3.org/2000/svg" viewBox="0 0 166 48"><style>.st0{fill-rule:evenodd;clip-rule:evenodd}</style><path class="st0" d="M0 2.6h43.6v43.6H0V2.6z"/><path fill-rule="evenodd" clip-rule="evenodd" fill="#fff343" d="M1.3 3.8h41.1v41.1H1.3V3.8z"/><path class="st0" d="M3.4 36.6l5.4 5.5 12.6-12.7 13 13 5.4-5.4-12.9-12.9 2.5-2.4v-5.1l1.6-1.3v4l2 1.6 6-6 1.9 1.5C42 12.3 35.4 2.8 30 8l-6.3 6.3 1.3 1.6-3.2 3.1-3.1-3 1.6-1.5-6.9-6.7C8.2 3.5 2.9 10 2.7 16.4l1.9-1.6 5.8 6.3 2.1-1.7v-3.8l1.3 1v5l2.5 2.5L3.4 36.6zM54.8 7.8v3.8h1.6c2.2-.4 1.6-3.6 0-3.8h-1.6zM50.1 4v17.1h4.6v-5.6l3.9 5.6h5.5l-4.9-6.9c5.6-2.7 3.5-10.2-2.4-10.3h-6.7V4zm21.4 8.6c1.5 0 2.8 1.2 2.8 2.6 0 1.4-1.2 2.6-2.8 2.6a2.7 2.7 0 0 1-2.7-2.6c0-1.4 1.2-2.6 2.7-2.6zm-.9-3.8c1.3 0 2.4.4 3.4 1.1v-.6h4.5v11.9h-4.6v-.7a6 6 0 0 1-3.4 1.1 6.2 6.2 0 0 1-6.1-6.3c0-3.6 2.8-6.5 6.2-6.5zm10.3.5h4.8v11.9h-4.8V9.3zm2.4-6.8c1.4 0 2.5 1.2 2.5 2.5 0 1.4-1.1 2.5-2.5 2.5A2.5 2.5 0 0 1 80.8 5c0-1.4 1.1-2.5 2.5-2.5zm36.5 6.8h4.8v11.9h-4.8V9.3zm2.4-6.8c1.4 0 2.5 1.2 2.5 2.5 0 1.4-1.1 2.5-2.5 2.5a2.5 2.5 0 0 1-2.5-2.5c0-1.4 1.1-2.5 2.5-2.5zM86.6 9.3v3.8h1.7v8.1H93v-8.1h4.4v8.1h4.8V13h3V9.3H102V6.7c-.1-1 2.2-1.4 3-.6V2.2c-4.4-1.4-8 1.1-8 5v2.1h-4.1V6.7c-.1-1 1.9-1.4 3.1-.6V2.2c-3.8-1.1-7.9.7-7.9 4.9v2.1l-1.5.1zm25.3 12.2c4.1 0 5.6-1.7 6.5-4.2h-4.2c-1.9 2.4-4.7.7-4.5-1.3h8.8c0-4.8-2.6-7.1-6.7-7.1s-6.7 2.9-6.7 6.4a6.7 6.7 0 0 0 6.8 6.2zm-1.5-8.3c.1-1.4 3.2-1.4 3.4 0h-3.4zm34.3 8.3c4.2 0 5.7-1.7 6.6-4.2H147c-1.9 2.4-4.7.7-4.5-1.3h8.8c0-4.8-2.5-7.1-6.7-7.1-4.1 0-6.7 2.9-6.7 6.4.1 3.5 3.1 6.2 6.8 6.2zm-1.6-8.3c.1-1.4 3.2-1.4 3.4 0h-3.4zm-6.4-3.7l-1.4 2.9c-1.8-.6-3.5-.4-3.5.1.1.3-.2.9 2.5 1.3 4.2.7 3.8 8.4-3.2 7.8a10 10 0 0 1-4.8-1.4L128 17c2.2 1.1 4.3 1.7 4.4.6.2-1.3-2.3-.9-3.8-2-2.7-1.7-1.2-6.8 3.2-6.8 1.7-.1 3.3.2 4.9.7zm16.5-.2v11.9h4.5v-7.3c.1-1.8 3.7-2.1 3.7 0v7.3h4.5v-7.5c-.1-4.2-4.5-6.2-8.5-3.5v-.9h-4.2zM52.8 28.5l-3 17.7h8.5c5.8 0 8.1-7.1 4-9.6 3.5-3.2 1.7-8.1-2-8.1h-7.5zM56.2 39l-.6 2.9h2c2.2.1 2-2.9.7-2.9h-2.1zm1-6.3l-.5 2.3h.6c1.8.1 2.9-2.4.7-2.4h-.8v.1zm7 13.4h5.2L71 43h5.8l.9 3.2h4.8l-4.1-17.6h-4.9l-9.3 17.5zm8.4-6.8h3.2l-1-4.7-2.2 4.7zM84 46.2h4.8L90 35.1l6.8 11h5.1l2.1-17.7h-4.8l-1.3 11.1-6.8-11.1h-4.9L84 46.2zm23.4-17.8l-3.3 17.7h5l1.3-6.6 4.5 6.6h6.6l-6.4-9.3 8.2-8.5h-6.4l-5.6 6.3.9-6.3-4.8.1z"/></svg>