<svg id="Слой_1" xmlns="http://www.w3.org/2000/svg" viewBox="0 0 166 48"><style>.st0{fill-rule:evenodd;clip-rule:evenodd;fill:#ced2d5}.st1{fill:#fff}.st3{fill-rule:evenodd;clip-rule:evenodd}</style><path d="M81.2 19.9l.5-.8h.1v6.1h2.8V14.8h-2.8l-3.1 4.8-.5.8-.5.8h-.1v-6.4h-2.8v10.4h2.8l1.5-2.2 1.5-2.3.6-.8m8.8 1h4.2v4.3H97V14.8h-2.8v3.9H90v-3.9h-2.8v10.4H90zm18.5 1c0-1.1-.4-1.9-1.1-2.5-.7-.6-1.7-.9-3-.9h-2v-3.7h-2.8v10.4h4.9a5 5 0 0 0 2.9-.8c.8-.5 1.1-1.4 1.1-2.5m-3.2.9c-.3.2-.6.3-1.1.3h-1.8v-2.6h1.8c.5 0 .8.1 1.1.3.3.2.4.5.4 1s-.1.8-.4 1m39.2 1c.5-.5.9-1 1.2-1.7.3-.7.4-1.4.4-2.2 0-.8-.1-1.5-.4-2.1a10 10 0 0 0-1.1-1.7c-.5-.5-1.1-.8-1.8-1.1-.7-.3-1.4-.4-2.2-.5v-3.9l-2.6 1v2.9c-.8 0-1.5.2-2.2.5a5.4 5.4 0 0 0-3 2.7c-.3.6-.4 1.3-.4 2.1s.1 1.6.4 2.3a5 5 0 0 0 1.1 1.7c.5.5 1.1.8 1.8 1.1.7.3 1.4.4 2.3.5v4.4l2.6-1v-3.4c.8 0 1.5-.2 2.2-.5.6-.2 1.2-.6 1.7-1.1m-6.6-.4a2 2 0 0 1-1.1-.3c-.4-.2-.7-.4-.9-.7a2 2 0 0 1-.6-1c-.2-.4-.2-.9-.2-1.4 0-.9.3-1.7.8-2.3.5-.6 1.2-1 2.1-1v6.7zm3.7-.3c-.3.2-.7.2-1.1.3v-6.7a3 3 0 0 1 2.1 1c.5.6.7 1.4.7 2.3l-.2 1.4-.6 1c-.3.3-.6.6-.9.7m19.2-.9c.3-.7.4-1.4.4-2.2 0-.8-.1-1.5-.4-2.1-.3-.6-.7-1.2-1.2-1.7s-1.1-.8-1.8-1.1c-.7-.3-1.4-.4-2.2-.5v-3.9l-2.6 1v2.9c-.8 0-1.5.2-2.2.5a5.4 5.4 0 0 0-3 2.7c-.3.6-.4 1.3-.4 2.1s.1 1.6.4 2.3a5 5 0 0 0 1.1 1.7c.5.5 1.1.8 1.8 1.1.7.3 1.4.4 2.3.5v4.4l2.6-1v-3.4c.8 0 1.5-.2 2.2-.5.7-.3 1.3-.6 1.7-1.1.6-.5 1-1.1 1.3-1.7m-7.7 1.2a2 2 0 0 1-1.1-.3c-.4-.2-.7-.4-.9-.7a2 2 0 0 1-.6-1c-.2-.4-.2-.9-.2-1.4 0-.9.3-1.7.8-2.3.5-.6 1.2-1 2.1-1v6.7zm5.2-2l-.6 1-.9.7c-.3.2-.7.2-1.1.3v-6.7a3 3 0 0 1 2.1 1c.5.6.7 1.4.7 2.3 0 .5 0 1-.2 1.4m-94.9-8.6h4.1v12.4h2.9V12.8h3.9v-2.5H63.4zm56.7 2H117l-3.8 4.5v-4.5h-2.8v10.4h2.8v-5.1l3.7 5.1h3.3l-4.1-5.6zm9.4 1.2c-.4-.5-1-.8-1.6-1.1-.6-.2-1.3-.4-2.1-.4-.7 0-1.4.1-2.1.4-.6.2-1.2.6-1.6 1.1a5 5 0 0 0-1.1 1.7c-.2.7-.4 1.4-.4 2.3 0 .8.1 1.6.4 2.2a4.6 4.6 0 0 0 2.6 2.8c.6.3 1.3.4 2.1.4.7 0 1.4-.1 2.1-.4.6-.2 1.2-.6 1.6-1.1a5.6 5.6 0 0 0 1.5-4 5 5 0 0 0-.4-2.2l-1-1.7m-1.6 5.3l-.4 1-.7.7c-.3.2-.6.2-1 .2a2 2 0 0 1-1.7-.8c-.4-.6-.6-1.4-.6-2.4 0-.9.2-1.7.6-2.3.4-.6.9-.9 1.7-.9a2 2 0 0 1 1.8.9c.4.6.6 1.4.6 2.3l-.3 1.3M71.6 35.1c1 0 1.8.2 2.4.7.6.5.9 1.2.9 2.2 0 1-.3 1.7-.9 2.2-.6.5-1.4.8-2.4.8h-4.2V30.9H74V32h-5.3v3.2h2.9zm2.2 3c0-.6-.2-1.1-.6-1.4-.4-.3-.9-.5-1.5-.5h-3V40h3c.7 0 1.2-.2 1.5-.5.4-.3.6-.8.6-1.4zm5.6-4.8c.9 0 1.6.2 2 .6.5.4.7 1 .7 1.8V41H81v-.7c-.4.4-.8.6-1.2.7l-1.1.2-.9-.1-.8-.4-.6-.7c-.2-.3-.2-.7-.2-1.1l.2-1c.1-.3.3-.6.6-.8l.9-.5 1.1-.2 1 .1 1.1.4V36c0-.6-.1-1-.4-1.3-.3-.3-.7-.4-1.3-.4a3 3 0 0 0-1 .1l-1 .4-.4-.9 1.2-.4c.2-.2.7-.2 1.2-.2zm1.6 4.5l-.9-.4-1.1-.2a2 2 0 0 0-1.3.4c-.3.3-.5.6-.5 1.1 0 .5.1.9.4 1.1.3.3.7.4 1.3.4l1.2-.3 1-.7v-1.4zm7.9 3.2v-3.5h-4V41h-1.1v-7.6h1.1v3.2h4v-3.2H90V41h-1.1zm8.5-7.6L93.9 37l3.5 4.1h-1.3l-3.3-3.9V41h-1.1v-7.6h1.1v3.4l3.3-3.4h1.3z"/><path class="st0" d="M21.1 34.8c.7-.5 1.2-.8 1.2-2.1-1 .5-3.9.5-5.1-1.2-.3-.5 0-.7.4-.3.8.9 2.3.5 2.9.2l-.5-.9c.2-.2.8-.5.9-1-.3-.2-1.5-.3-1.5-.3.2-.2.4-.5.3-1.1-1.2.4-2.8-.1-3.1-.6-.3-.5 0-.9.3-.6.6.7 3.7 1.4 4.8.3a2 2 0 0 1-1-.7c1.1-.1 1.9-.7 2-1.5-.6 0-1.7 0-2.1-.3.5-.2.8-.4 1-.9-1.9-.1-2.1-1.5-2.1-1.8 1.3.7 3.5.4 2.9-1.4-1-.1-2.1-1.7.8-3.3 2.6-1.4 5.6-2.9 5.3-5.4-.2-1.6-2.8-2.7-3.1-3.5-1.1.5-1.3 1.1-.8 2.1 0 0-2.4.2-2.6-1.3-.1-.7.4-1.3.9-1.8-.3 0-2.1-.5-2.7 1-1-.7-1.9-.7-2.6.1 1.1.7 1.8 2.9 3.6 3.6-1.3.7-3.4.4-4.7-1.8-1.2 1.8-1.8 3.5.7 5.4-4.6 2.1-4.5 6-8.5 7.9.4 1.1 1.3 1.1 2.3.9-1.7 2.2-.3 4.6-3 5.5.3.9.8 1.6 1.8 1.4l-.9.9c1.5.9 3.2.3 3.6-2.7.1-.5.8-.2.6.3-1.7 3.5 2.6 6.1 1.1 8.7 1.3-.1 2.3-.2 2.9-.6.3.5.4 1.1.4 1.6.7-.1 1-.6 1.1-1.1.5 1.4 2.2 2.9 5 2.9-1.8-2.1-.5-4.2-2.5-6.6m-2.8 2.6l-.6 1c-.2-.7-.6-1.3-.8-1.8-.5 1-1.2 1-1.9 1 .2-2.3-2.8-4.7-1.5-7.4.3-.5.1-1.2-.5-1.5-2-1-1.1 3.2-3 3.3.4-.5.5-1.5.6-1.5-.4.1-1.4.7-1.9-.1 1.2-.6 1.5-1.6 1.7-2.5.2-1.2.3-1.8.6-2.2.2-.5.6-1 1.5-2.1-.2 0-2.4.5-2.9.3 3.8-2.4 3-5.4 8.8-8-1.5-1.1-3.1-2-2-4.2 1.6 1.9 4.6 1.3 6.3.4-1.6-.3-3.7-1.8-4.2-3.3.6-.1 1.4.6 1.9.9.2-.6.3-1.3 1-1.4-1 2 .9 3.1 2.7 3.1l1.4-.1c-.2-.4-.9-1.4-.4-1.8l1.4 1.1c3.5 2.7-1.7 5.2-3.8 6.3-3.3 1.8-2.4 3.9-1 4.4 0 .2-.2.3-.4.4-1 .3-1.9-.4-2.6-.8 0 1.3 0 2.6 1.4 3.3l-1 .4c.9.7 1.1 1 2.2 1.1-.5.2-1.1.2-1.6.3.1.4.2.9.5 1.2-2.1.3-3-1-3.7-.9-1.4.1-1.3 2.8 2.2 2.8l-.4.6s.7.4 1.3.5l-.7.6.6.5c-1.4.3-1.8-1.3-2.7-.5-1.4 1.1 1.7 3.5 4.7 3.1l-1.3 1c2.4 2.3 1.2 4.4 2.2 6a4.9 4.9 0 0 1-4.1-3.5"/><path class="st0" d="M14.5 29c.5.5 1.1.6 2.3.5-1.3-.2-2-.5-2.4-1.3l-.1-1.4c0-1.3.4-2.9 1.3-4.7 0 1.1.9 2.8 2.8 3.1-1.7-.8-2.8-2.5-2.2-4.1l1.2-1.8.7-.8c-.2.8.8 1.7 1.5 1.9-.4-.4-1.2-1.5.7-3.5l-1.5.9c3.3-3.6 6.1-3.7 7.4-5.5a14.8 14.8 0 0 1-8.8 1.3c1.2.8 4.1.7 4.8.6-2.4 2.3-7.5 4.7-8.4 6.8 1.3-1.4 2.1-1.6 3.2-2a24 24 0 0 0-2.2 3.7c-1.4 3-3.2 3-3.3 5.5.6-1.9 1.9-2.4 2.8-3.6-.2.8-.2 1.7-.2 2.7 0 1.1.3 2.1.6 3-.1 1.2 0 3.3 1.4 4.7a7.3 7.3 0 0 1-1.1-3.9c1.1 2.1 4.2 5 5.7 7-1.7-2.8-5.4-5.7-6.2-9.1m34.4-10.1c1.1.4 1.9.6 3.2 2-.9-2.1-6-4.5-8.4-6.8.7.1 3.6.2 4.8-.6-2.2.6-7-.1-8.8-1.3 1.3 1.8 4 1.9 7.4 5.5l-1.5-.9c1.8 2 1 3.1.7 3.5.7-.1 1.7-1 1.5-1.9l.7.8 1.2 1.8c.6 1.7-.5 3.4-2.2 4.1 1.9-.3 2.8-2 2.8-3.1a9 9 0 0 1 1.3 4.7l-.1 1.4c-.4.8-1.2 1.2-2.4 1.3 1.2.1 1.8 0 2.3-.5-.8 3.4-4.5 6.3-6 8.8 1.5-2 4.6-4.9 5.7-7 .1.8-.1 2.7-1.1 3.9 1.4-1.4 1.5-3.4 1.4-4.7a7 7 0 0 0 .6-3c0-1 0-1.9-.2-2.7.9 1.2 2.1 1.7 2.8 3.6-.1-2.5-2-2.5-3.3-5.5l-2.4-3.4"/><path class="st0" d="M54.8 24.5c1.1.2 1.9.2 2.3-.9-4-1.9-3.9-5.9-8.5-7.9 2.5-1.9 1.8-3.6.7-5.4-1.2 2.2-3.4 2.5-4.7 1.8 1.8-.7 2.5-2.9 3.6-3.6-.7-.7-1.6-.8-2.6-.1-.6-1.5-2.4-1-2.7-1 .5.5.9 1.1.9 1.8-.2 1.5-2.6 1.3-2.6 1.3.5-1 .3-1.6-.8-2.1-.3.8-3 1.9-3.1 3.5-.3 2.5 2.7 4 5.3 5.4 2.9 1.5 1.8 3.2.8 3.3-.6 1.8 1.6 2.1 2.9 1.4 0 .2-.2 1.7-2.1 1.8.2.6.5.7 1 .9-.4.3-1.5.3-2.1.3.1.8.9 1.4 2 1.5-.1.2-.5.6-1 .7 1.1 1.1 4.2.4 4.8-.3.3-.3.6.1.3.6-.4.5-1.9 1-3.1.6-.1.7.1 1 .3 1.1 0 0-1.2.1-1.5.3.1.5.7.8.9 1-.2.2-.5.6-.5.9.6.3 2.1.7 2.9-.2.3-.4.7-.1.4.3-1.2 1.6-4.1 1.7-5.1 1.2 0 1.3.5 1.6 1.2 2.1-2.1 2.4-.7 4.5-2.2 6.6 2.8 0 4.5-1.5 5-2.9.1.5.3.9 1.1 1.1-.1-.5.1-1.1.4-1.6.6.5 1.6.6 2.9.6-1.5-2.6 2.8-5.2 1.1-8.7-.3-.5.5-.9.6-.3.4 3 2.2 3.7 3.6 2.7l-.9-.9c1 .3 1.5-.5 1.8-1.4-3-.9-1.5-3.3-3.3-5.5m.3 5.9c.1.1.2 1.1.6 1.5-2-.1-1.1-4.3-3-3.3-.6.3-.7.9-.5 1.5 1.3 2.7-1.7 5-1.5 7.4-.7 0-1.5 0-2-1l-.8 1.8-.6-1a4.3 4.3 0 0 1-4 3.3c1-1.6-.2-3.7 2.2-6l-1.3-1c3 .4 6.1-2 4.7-3.1-.9-.7-1.3.8-2.7.5l.6-.5-.7-.6c.6-.1 1.3-.5 1.3-.5l-.4-.5c3.5 0 3.6-2.7 2.2-2.8-.7-.1-1.5 1.2-3.7.9.3-.3.4-.8.5-1.2-.5 0-1.1 0-1.6-.3 1-.1 1.3-.5 2.2-1.1l-1-.4c1.5-.7 1.4-2 1.4-3.3-.8.4-1.7 1.1-2.6.8-.2-.1-.4-.2-.4-.4 1.4-.5 2.3-2.7-1-4.4-2.1-1.1-7.2-3.6-3.8-6.3l1.4-1.1c.5.4-.2 1.5-.4 1.8l1.4.1c1.8 0 3.7-1.1 2.7-3.1.7.1.8.8 1 1.4.5-.3 1.3-1 1.9-.9-.5 1.6-2.6 3-4.2 3.3 1.6.9 4.7 1.6 6.3-.4 1.1 2.2-.4 3.1-2 4.2 5.8 2.7 5 5.7 8.8 8-.5.2-2.7-.2-2.9-.3.8 1.1 1.2 1.5 1.5 2.1l.6 2.2c.2.9.5 1.9 1.7 2.5-.5 1-1.5.4-1.9.2M27.2 37l.8-.7-.1-.3c-.1-.2 0-.2.1-.3l.4-.3h.3l1.3.3h-1.4c-.3 0-.4.1-.5.4l-.1.2-.3.7c-.1.3-.2.6.1 1l.3.3-.5 1h.4l.4-.7s.6-.5.7-1c-.2-.1-.3-.2-.2-.4l.2-.3c.1-.1.1-.2.2-.1l1.4.3c.2 0 .4.1.6-.2.2-.3.2-.3.7-.2l.7.1c1 .1 1.9-.2 2.3-.4l.5.8-.1.4-.8 1.9h1.2l.7-1.7.2-.4-.4 2.1h1.2l.3-2.1c.1-.5 0-.6-.2-.8-.5-.4-.5-1.3-.6-1.8l.3-.1c.3 0 .5.7.8 1.1.6.9 1.4 1.8 2.4.5l-.3-.4-.3-.3-1.2-1.3c-.7-.7-1.8-.6-2.2-.3-1-.5-2 0-2.2 0l-1.7-.1c-.1 0-.2 0-.3-.2l.3-.1c-.3-1.2-1-2.2-2.3-2.4 0 0-.1-.4-.3-.5l-.4.4-.3.1-1.6-.6 1.2 1.2-.8 1.1v.5l.2.3c.1.2.3.2.5.1l.3-.1c.1-.1.5.1.7-.1l-.2 1-1.1-.1-.5.1-1 .6c-.3.2-.4.6-.2 1l.4.8zm9.1.2l-.8 1.8H35l.7-1.8c.1-.2-.1-.3-.3-.6l.8.4.1.2m-7.2-4l-.2.1h-.3l-.1-.1v-.3l.9-1.1-.8-.7 1.1.4.4-.5.1.4c.4 0 1.7.6 1.7 2.2 0 0 .3.4.6.4l1.9.1c.3 0 1.1-.6 2.1 0 .2-.2.5-.3.8-.3.9-.1 1.5.5 2 1.1l.8 1.1-.6.3c-.3-.1-.3-.3-.4-.6-.1-.5-.6-.8-.6-.8.2.3.2.7.3 1-.7-.7-.9-1.6-1.4-1.7-.2-.1-.5 0-.7.3.3.6.2 1.3.5 1.7l.3.4c.2.2.1.4.1.6l-.4 1.8h-.5l.3-1.7c.1-.5-1.3-.5-2.1-1.5-.6.7-2.4.5-3.1.4-.3 0-.6 0-.8.3-.1.2-.3.1-.4.1l-1.4-.3c-.2-.1-.3 0-.5.2l-.3.6c-.1.1-.1.2.1.3l.1.1-.3.5-.3-.3c-.1-.2-.2-.4 0-.7l.4-.9c.1-.1.1-.2.3-.2h1.7l-.4-.8c-.4-.6.3-1.8.2-2.3-.1.7-1 .3-1.1.4m-1.9 2.2l.8-.6.4-.2 1.1.2.2.5-1.2-.3-.4.1-.6.4-.1.4.1.2-.4.3-.2-.3c.1-.2.1-.5.3-.7m3.6-22l1.2.6v-.5l-1.7-.7s0 .2.5.6m1.2-.7v-.5l-2-.7.7.6 1.3.6m0-1.2V11l-2.2-.8.9.7 1.3.6"/><path class="st0" d="M38.1 18.7h2.2c-.1-.3-.4-.6-1.1-.6a1 1 0 0 0-1.1.6m-2.3-8.5l-2.2.8v.5l1.2-.6 1-.7m-.5 2.6l-1.7.7v.5l1.2-.6c.5-.4.5-.6.5-.6m.3-1.3l-2 .7v.5l1.2-.6.8-.6M26.4 18c-.6 0-1 .3-1.1.6h2.2c-.1-.2-.5-.6-1.1-.6"/><path class="st0" d="M37.2 8.8c0-1.2-2.1-2.4-4.4-2.4-2.3 0-4.4 1.1-4.4 2.4v.3l.9 5.3-4.3 2.5c-.5.3-1 1-1.1 1.8h.8c.1-.7.7-1.6 1.8-1.5 1 .1 1.6.7 2.2 1.5l.2.2.2.3h-6.4c.5.9.9 1.9.9 3v13.3c0 3.4 2.6 5 5.5 5 2.2 0 2.5-.1 3.7 1.1 1.2-1.2 1.5-1.1 3.7-1.1 2.8 0 5.5-1.6 5.5-5V22.3c0-1.1.4-2.1.9-3h-6.4l.2-.3.2-.2c.6-.9 1.2-1.5 2.2-1.5 1.1 0 1.7.8 1.8 1.5h.8a3 3 0 0 0-1.1-1.8l-4.3-2.5.9-5.3v-.4zm-7.9.6l3.2 1.1v5.1l-2.4-1.3-.8-4.9zm.8 10.8c.4.6 1.1 1 1.9 1.2.1.3.2.6.6.9-.1.9.3 1.8 1.2 2 .1.5.4.8.9 1l-.7.7c-.3.3-.6.4-.9.4l-3-.3c.1-.3-.2-.7-1.2-.6l1.2-3.3-.7-1.5-1.4 1.1-.1 3.5-.5-.3c-.8-.3-1 1.1-.3 1.1h.3l.1.3c-.1.1-.2.3 0 .4-.2.1-.2.3-.1.5-.2.3-.2.8.4 1 .4.1.7-.4.8-.6l4.7 1.5c.7.2 1.1.1 1.7-.4l1.2-1.1c-.2.7.1 1.3.6 1.5l-.1.9H24.6v-7.7c0-.7-.2-1.4-.5-2.1h6zm5.1 2.9c-.3.5-.2 1.1.1 1.6l-.3.2c-.9-.1-1.2-1.4-1.2-1.4v.4c-.5-.2-.8-.6-.8-1.3l.6.2.1-.4c-.6-.1-1-.5-1.1-.9h-.1.3l1-.2c.3.4.7.6 1.2.7-.1.3 0 .6.2 1.1m1.3 3.5l-.2.4-.5.5c.1-.7-.4-1.6-.8-1.9l.5-.5.1.1c-.2.4.2 1.3.9 1.4m-2.4-.2l.4-.4c.4.4 1 1.2.8 1.9l-.4.4-.3.2c.2-.7-.1-1.7-.5-2.1m-.9.3l.5-.1c.3.4.5 1.4.2 2.1l-.6-.1h-.2c.3-.5.3-1.4.1-1.9m-1-.1l.6.1c.1.5 0 1.3-.3 1.8l-.7-.2c.3-.5.5-1.3.4-1.7m-1.2-.2l.7.1a3 3 0 0 1-.3 1.6l-.7-.2c.3-.4.4-1 .3-1.5m-2.8-.1c-.3.1-.5-.1-.5-.3.6-.2.9-.1 1.1 0l.5.6-.2.9c-.6-.2-.7-.7-.4-1.1-.1-.2-.2-.2-.5-.1m-.4 1.2l.4.1c0 .1-.1.3-.3.2-.1 0-.2-.2-.1-.3m-.7-1.8c-.2-.1-.1-.3.1-.3l.7.3h-.8m.7 1.3l.6.1v.1c-.2.2-.7.1-.6-.2m.5-.3c-.3.1-.6 0-.5-.2l.5.1v.1zm.5-3.5l-.6 2.1.2-3.4.9-.8.5 1-1.1 3.3.3-2.2c-.1-.1-.2-.1-.2 0m0 2.6h.8c.1.1 0 .3-.1.3a14 14 0 0 0-.7-.3m1 .5l.7.1c.1.4 0 1-.3 1.4l-.7-.2.3-1.3m11.3 9.3c0 1.6-.7 2.8-2 3.5l.4-.9h-.4l-.6 1.2c-.6.2-1.3.3-2 .3-2.3 0-2.9.1-3.7.9-.8-.8-1.4-.9-3.7-.9-.7 0-1.4-.1-2-.3l.6-1.2h-.4l-.5 1-.3-.2.4-.8h-.4l-.3.6c-1-.7-1.5-1.8-1.5-3.2v-5.1h16.5v5.1zm.4-15.4c-.3.7-.5 1.4-.5 2.1V30h-.9c-.4-.4-.8-1.7-.8-1.7-.2.5 0 1.4.3 1.7h-1.2c-.3-.4-.5-1.8-.5-1.8-.3.4-.1 1.5.1 1.8h-.8l.1-1.1c-.4-.1-.8-.3-.8-.7.2.2.3.2.6.2l.3-.3c-1.1 0-1.1-1.2-.3-1.7-.9 0-1.5-.5-1.2-1.4-.6-.3-.8-1.4-.4-1.8-.3-.4-.4-1.1-.2-1.5-.4 0-.9-.2-1.2-.5H34c.5-.2 1-.6 1.3-1h6.2zm-3.3-3.7c-.9.2-1.7 1.3-2.3 2.2l-.1.1h-.7v.1c-.1.8-.8 1.8-2.4 1.8-.7 0-1.3-.2-1.7-.5l-.6-.9-.1-.3v-.1h-.7l-.1-.1c-.6-1-1.4-2.1-2.3-2.2l2.4-1.4 3 1.6 3-1.6 2.6 1.3zm-2.8-2.2L33 15.6v-5.1l3.2-1.1-.8 4.9zM32.8 10l-3.5-1.4c.3-.7 1.7-1.3 3.5-1.3s3.2.6 3.5 1.3L32.8 10z"/><path class="st0" d="M40.7 25.2v-.4c-1.2 0-1.5-1.4-1.5-1.4-.3 1 .6 1.8 1.5 1.8m-1.5 2.4l-.1-.4c-1 .3-1.5-1.3-1.5-1.3-.4 1.1.7 1.9 1.6 1.7m.7-1.5c-1.2.2-1.7-1.2-1.7-1.2-.1.8.4 1.5 1.2 1.6-.2 1 .8 1.5 1.6 1.2l-.1-.3c-.8.1-1.5-.6-1-1.3m-.7-4.1v-.4c-1.6-.3-1.5-1.4-1.5-1.4-.3 1.1.6 1.8 1.5 1.8M29 38.2l-.6 1.1h.5l.5-1.1zm.9 0l-.6 1.1h.4l.6-1.1zm3.4 0l-.5 1.1h.4l.6-1.1zm.9 0l-.6 1.1h.5l.5-1.1zm-1.7 0l-.6 1.1h.4l.6-1.1zm5 1.1h.5l.5-1.1h-.4zm-6.8-1.1l-.5 1.1h.4l.6-1.1zm.9 0l-.6 1.1h.5l.5-1.1zm-2-6.3l-.1.2.1.2.2-.2-.2-.2m3.2-26.2c1.8 0 3.2.6 4 1.2 0 0 .2-1.4 1-2.7l-1.4.2-.7-1.6-1.4.7-1.4-1.4-1.4 1.4-1.5-.7-.7 1.6-1.4-.2c.8 1.2 1 2.7 1 2.7.7-.6 2.1-1.2 3.9-1.2m-3.3-.6l.7-1.4 1.3.7L32.9 3l1.4 1.4 1.3-.7.7 1.4.7-.2-.5 1.3a7.6 7.6 0 0 0-7.2 0l-.5-1.3.7.2z"/><path class="st0" d="M34.3 2.8c.2 0 .4-.1.4-.3l-.3-.8s-.5.5-.5.7c0 .2.2.4.4.4m2.3.9c.2.1.4 0 .5-.2.1-.2 0-.8 0-.8l-.6.5c-.1.2-.1.4.1.5m-5.3-.9c.2 0 .4-.2.3-.4 0-.2-.5-.7-.5-.7l-.3.8c.2.2.3.3.5.3m-2.3.9c.2-.1.3-.3.2-.5-.1-.2-.7-.5-.7-.5s-.1.6 0 .8c.1.2.3.3.5.2m28.1 12.9c.5-.2.9-.7 1.1-1.1-1.3-.2-4.7-1.6-7.4-.4 1-1 2-1.1 2.1-2.5.4.3 1.2.5 1.6-.3-.3-.8-1-.2-1.1-.4-.1-.3.9.1 1.1-1-.8-.3-1.1.4-1.2.2-.1-.1.5-.4 0-1.3-.9.5-.4 1.1-.6 1.1-.2.1 0-.6-1-.6-.1 1 .9 1 .7 1.2-.2.2-.4-.6-1.2-.2 0 .8.7 1.3 1.4 1.1-.1 1.6-1.5 1.3-2.6 3 2.2 1.2 3.3 3.2 4.7 4.6.5-.3 1.2-1.8 1.2-1.8 1.5 1.2 2.6 0 2.6 0-.5-.5-.6-.9-1.4-1.6m-2.1.3c.2.3.5 1.5-.3 2.4-.8-1.7-2-3.1-2.9-3.7-.2-.1.1-.4.7-.4 1.7-.3 3.8.4 4.7.7-.4.3-.8.5-1.3.5a12 12 0 0 1 1.6 1.6c-.7.2-1.1-.3-2.5-1.1M40.5 42.8v-1.9c-1.5.7-3.3 1.2-5.7 1.4l-.1.7.8.1-2.7.2-2.7-.2.8-.1-.1-.7c-2.4-.2-4.3-.8-5.7-1.4v1.9l-2 .8c1.5.8 3.2 1.4 5.1 1.9l-.2.8c1.1.3 2.9.7 4.8.7s3.7-.3 4.8-.7l-.2-.8c2-.5 3.7-1.1 5.1-1.9l-2-.8zm-16.3.9l1.3-.5v-1.5c.9.3 2 .7 3.6 1l-.8 2.5-4.1-1.5m8.6 2.8c-1.5 0-3-.2-4.3-.5l.8-2.6a20.1 20.1 0 0 0 7 0l.8 2.6c-1.3.3-2.8.5-4.3.5m4.4-1.4l-.8-2.5c1.6-.3 2.8-.7 3.6-1v1.5l1.3.5c-1 .6-2.4 1.1-4.1 1.5M9.7 18.2s.8 1.4 1.2 1.8c1.4-1.4 2.4-3.4 4.7-4.6-1.1-1.8-2.5-1.5-2.6-3 .7.2 1.3-.3 1.4-1.1-.7-.4-1 .4-1.2.2-.2-.2.8-.2.7-1.2-.9 0-.8.7-1 .6-.2-.1.3-.6-.6-1.1-.5.9.2 1.2 0 1.3-.1.2-.4-.5-1.2-.2.2 1.1 1.3.7 1.1 1-.1.2-.8-.5-1.1.4.4.7 1.1.6 1.6.3.1 1.4 1 1.5 2.1 2.5-2.8-1.2-6.2.3-7.4.4.2.4.6.9 1.1 1.1-.8.7-.8 1.1-1.3 1.7-.1-.1 1 1.1 2.5-.1M8.1 18l1.6-1.6c-.5-.1-.8-.2-1.3-.5 1-.3 3-1 4.7-.7.6.1.9.3.7.4-.9.6-2.1 2-2.9 3.7-.7-.9-.4-2.1-.3-2.4-1.4.8-1.8 1.3-2.5 1.1m23.5-.8v.8c.3-.3.8-.3.8-.3v1.2s0 .6-.2.9h1.2c-.2-.3-.2-.9-.2-.9v-1.2s.6-.1.8.3v-.8h-2.4z"/><path class="st1" d="M59.2 17.5l-.4-.5-.2-.3.5-.8.5-1.2-1.3-.2-1-.2c-.8-.2-1.9-.5-3-.6.4-.2.7-.5.9-.9l.2-.4s-.1-.6-.3-.7l.2-.6.2-.9-.8-.3-.4-.1-.2-.5-.5-.9-.9.5-.6.5h-.4s-.5-.1-1.1.1l-.7-.8-.9-.9a2.6 2.6 0 0 0-3-.7 3 3 0 0 0-2.1-.8l-.8.1s-1.4.3-2.2 1l-1-.5c-.7 1-1.8 1.3-1.8 1.3l-.4-.8.1-.4s.2-1.2.9-2.3L39.8 3l-1.6.2v-.6L38 1.2l-1.3.6-.4.2-.3-.5-.6.3-.2-.5-.6-1.3-1 1-.3.3-.6-.6-.6.6L32 1l-1-1-.7 1.2-.2.5-.6-.3-.3.6-.4-.2-1.3-.6-.1 1.4v.6L25.8 3 27 4.8c.7 1 .9 2.3.9 2.3l.1.4a3 3 0 0 0-.4.8s-1-.4-1.8-1.3l-1 .5c-1.1-.8-1.8-1.1-3-1.1a3 3 0 0 0-2.1.8 2.6 2.6 0 0 0-3 .7l-.9.9-.8.6s-.7-.2-1.4 0l-.6-.5-.9-.5-.5.9-.2.5-.4.1-1 .3.2.9.2.6-.1.3-.1.4.2.4c.2.4.6.7.9.9-1.1.1-2.2.4-3 .6l-1 .2-1.3.2.3.7.2.5.5.8-.6.8-.7.7.6.7c.1.1.8.8 2 .8l1-.2c.3.5.7 1 1 1.2-.6.9-1.3 1.5-2.3 2l-.8.4.4 1c.2.6.7 1.2 1.6 1.5l-.4 1.6c-.2 1.1-.3 1.6-1.3 2l-.9.3.3.9c.1.6.5 1.1.8 1.5l-.6.7s1.4 1.1 2.8 1.2c0 0 1.2.1 1.7-.6.2.8.6 1.5.9 2.1.6 1.3 1 2.1.5 2.8l-1 1.6 1.9-.1 2.2-.2v.1l-.1 1.3 1.6-.3.5-.2c1 1.2 2.7 2.1 5.1 2.1h.1l-2.7 1.1 1.9 1a24 24 0 0 0 4.3 1.7l-.1.8 1 .3a18 18 0 0 0 10.2 0l1-.3-.2-.8c1.6-.5 3.1-1 4.3-1.7l1.9-1-2.7-1.1h.1c2.3 0 4-.9 5.1-2.1l.5.2 1.6.3-.2-1.4v-.1c.7.2 1.4.2 2.2.2l1.9.1-.9-1.6c-.4-.7-.1-1.5.5-2.8l.9-2.1c.4.3.7.4 1.1.5l.6.1c.8 0 1.2-.2 1.8-.6l1-.6-.6-.7c.3-.3.6-.8.9-1.6l.3-.9-.9-.3c-1-.4-1.1-.8-1.3-2l-.4-1.6c.9-.2 1.3-.9 1.6-1.5l.4-1-.8-.4c-1-.5-1.7-1.1-2.3-1.8.3-.2.7-.7 1-1.2l1 .2c1.2 0 1.9-.8 2-.8l.6-.7-.7-.7z"/><path d="M24.6 30v-7.7c0-.7-.2-1.4-.5-2.1h6c.6.8 1.6 1.3 2.7 1.3s2.1-.5 2.7-1.3h6c-.3.7-.5 1.4-.5 2.1V30H24.6zm8.2 10.6c-.8-.8-1.4-.9-3.7-.9-2.7 0-4.5-1.6-4.5-4.1v-5.1h16.5v5.1c0 2.5-1.8 4.1-4.5 4.1-2.4 0-3 .1-3.8.9" fill-rule="evenodd" clip-rule="evenodd" fill="#ffe64a"/><path class="st1" d="M25.5 41.6v1.5l-1.3.5c1.1.5 2.5 1 4.2 1.4l.8-2.5c-1.7-.2-2.8-.6-3.7-.9m7.3 2.1c-1.6 0-2.9-.2-3.5-.3l-.7 2.6a18.8 18.8 0 0 0 8.6 0l-.8-2.6c-.7.1-2 .3-3.6.3m7.3-2.1c-.9.3-2 .7-3.6 1l.8 2.5c1.7-.4 3.1-.9 4.2-1.4l-1.3-.5v-1.6zm-17.4-25c2.1-1.1 7.2-3.6 3.8-6.3l-1.4-1.1c-.5.4.2 1.5.4 1.8l-1.4.1c-1.8 0-3.7-1.1-2.7-3.1-.7.1-.8.8-1 1.4-.5-.3-1.3-1-1.9-.9.5 1.6 2.6 3 4.2 3.4-1.6.9-4.7 1.6-6.3-.4-1.1 2.2.4 3.1 2 4.2-5.8 2.7-5 5.7-8.8 8 .5.2 2.7-.2 2.9-.3-.8 1.1-1.2 1.5-1.5 2.1l-.6 2.2c-.2.9-.5 1.9-1.7 2.5.5.8 1.5.2 1.9.1-.1.1-.2 1.1-.6 1.5 2-.1 1.1-4.3 3-3.3.6.3.7.9.5 1.5-1.3 2.7 1.6 5 1.5 7.4.7 0 1.5 0 1.9-1l.8 1.8.6-1a4.3 4.3 0 0 0 4 3.3c-1-1.6.2-3.7-2.2-6 .3-.2 1-.7 1.2-1-3 .3-6.1-2-4.7-3.1.9-.7 1.3.8 2.7.5l-.6-.5.6-.6c-.6-.1-1.3-.5-1.3-.5l.4-.6c-3.5 0-3.6-2.7-2.2-2.8.7 0 1.5 1.2 3.7.9-.3-.3-.4-.8-.5-1.2.5 0 1.1 0 1.6-.3-1-.1-1.3-.5-2.2-1.1l1-.4c-1.5-.7-1.4-2-1.4-3.3.8.4 1.7 1.1 2.6.8.2-.1.4-.2.4-.4-1.1-.4-2-2.5 1.3-4.3m-2.5.2c-1.8 2-1 3.1-.7 3.5-.7-.1-1.7-1-1.5-1.9l-.7.8-1.2 1.8c-.6 1.7.5 3.4 2.2 4.1-1.9-.3-2.8-2-2.8-3.1a9 9 0 0 0-1.3 4.7l.1 1.4c.4.8 1.2 1.2 2.4 1.3-1.2.1-1.8 0-2.3-.5.8 3.4 4.5 6.3 6 8.8-1.5-2-4.6-4.9-5.7-7-.1.8.1 2.7 1.1 3.9-1.4-1.4-1.5-3.4-1.4-4.7a7 7 0 0 1-.6-3c0-1 0-1.9.2-2.7-.9 1.2-2.1 1.7-2.8 3.6.1-2.5 2-2.5 3.3-5.5.5-1.3 1.3-2.4 2.2-3.7-1.1.4-1.9.6-3.2 2 .9-2.1 6-4.5 8.4-6.8-.7.1-3.6.2-4.8-.6 2.2.6 7-.1 8.8-1.3-1.3 1.8-4 1.9-7.4 5.5.6 0 1.2-.3 1.7-.6m35.1 11.1c-.2-1.2-.3-1.8-.6-2.2-.2-.5-.6-1-1.5-2.1.2 0 2.4.5 2.9.3-3.8-2.4-3-5.3-8.8-8 1.5-1.1 3.1-2 2-4.2-1.6 1.9-4.6 1.3-6.3.4 1.6-.3 3.7-1.8 4.2-3.4-.6-.1-1.4.6-1.9.9-.2-.6-.3-1.3-1-1.4 1 2-.9 3.1-2.7 3.1l-1.4-.1c.2-.4.9-1.4.4-1.8l-1.4 1.1c-3.5 2.7 1.7 5.2 3.8 6.3 3.3 1.8 2.4 3.9 1 4.4 0 .2.2.3.4.4 1 .3 1.9-.4 2.6-.8 0 1.3 0 2.6-1.4 3.3l1 .4c-.9.7-1.1 1-2.2 1.1.5.2 1.1.2 1.6.3-.1.4-.2.9-.5 1.2 2.1.3 3-1 3.7-.9 1.4.1 1.3 2.8-2.2 2.8l.4.6s-.7.4-1.3.5l.7.6-.6.5c1.4.3 1.8-1.3 2.7-.5 1.4 1.1-1.7 3.5-4.7 3.1l1.3 1c-2.4 2.3-1.2 4.4-2.2 6a4.4 4.4 0 0 0 4-3.3l.6 1c.2-.7.6-1.3.8-1.8.5 1 1.2 1 1.9 1-.2-2.3 2.8-4.7 1.5-7.4-.3-.5-.1-1.2.5-1.5 2-1 1.1 3.2 3 3.3-.4-.5-.5-1.5-.6-1.5.4.1 1.4.7 1.9-.1-1.1-.7-1.4-1.7-1.6-2.6m-3.7-3.4a11.4 11.4 0 0 1-.4 5.7c.1 1.2 0 3.3-1.4 4.7a7.3 7.3 0 0 0 1.1-3.9c-1.1 2.1-4.2 5-5.7 7 1.5-2.5 5.2-5.4 6-8.8-.5.5-1.1.6-2.3.5 1.3-.2 2-.5 2.4-1.3l.1-1.4c0-1.3-.4-2.9-1.3-4.7 0 1.1-.9 2.8-2.8 3.1 1.7-.8 2.8-2.5 2.2-4.1l-1.2-1.8-.7-.8c.2.8-.8 1.7-1.5 1.9.4-.4 1.2-1.5-.7-3.5l1.5.9c-3.3-3.6-6.1-3.7-7.4-5.5 1.8 1.2 6.7 1.9 8.8 1.3-1.2.8-4.1.7-4.8.6 2.4 2.3 7.5 4.7 8.4 6.8-1.3-1.4-2.1-1.6-3.1-2a24 24 0 0 1 2.2 3.7c1.4 3 3.2 3 3.3 5.5-.6-2.2-1.8-2.7-2.7-3.9"/><path class="st1" d="M35.5 20.2c-.6.8-1.6 1.3-2.7 1.3l-.8-.1c.1.3.2.6.6.9-.1.9.3 1.8 1.2 2 .1.5.4.8.9 1l-.7.7c-.3.3-.6.4-.9.4l-3-.3c.1-.3-.2-.7-1.2-.6l1.2-3.3-.7-1.5-1.4 1.1-.1 3.5-.6-.3c-.8-.3-1 1.1-.3 1.1h.3l.1.4c-.1.1-.2.3 0 .4-.2.1-.2.3-.1.5-.1.3-.2.8.4 1 .4.1.7-.4.8-.6l4.7 1.5c.7.2 1.1.1 1.7-.4l1.2-1.1c-.2.7.1 1.3.6 1.5l-.1.9h4.2v-7.7c0-.7.2-1.4.5-2.1h-5.8zm-7 13l.1.1c.1.2.2.1.3 0l.2-.1c.1-.1 1 .2 1.1-.5.1.5-.5 1.7-.2 2.3l.5.9h-1.7c-.2 0-.3.1-.3.2l-.5 1v.7l.3.3.3-.5-.1-.1v-.3l.3-.6c.1-.2.2-.3.5-.2l1.4.3c.1 0 .3.1.4-.1.2-.3.5-.3.8-.3.8.1 2.5.3 3.1-.4.7 1 2.2 1 2.1 1.5l-.4 1.6h.5l.3-1.7c0-.2.2-.5-.1-.6l-.3-.4c-.3-.5-.2-1.1-.5-1.7.2-.3.5-.4.7-.3.5.1.6 1 1.4 1.7-.1-.3-.1-.7-.3-1 0 0 .5.4.6.8.1.3.2.5.4.6.2.1.4 0 .6-.3l-.8-1.1c-.5-.6-1.1-1.2-2-1.1-.3 0-.5.1-.8.3-1-.6-1.8 0-2.1 0l-1.8-.1c-.4 0-.7-.4-.7-.4 0-1.6-1.3-2.2-1.7-2.2l-.1-.4-.4.5-1.1-.4.8.7-.9 1.1.1.2"/><path class="st1" d="M27.2 35.4c-.3.2-.2.5-.1.8l.2.3.4-.3-.1-.2c-.1-.1-.1-.3.1-.4l.6-.4.4-.1 1.2.3-.2-.5-1.2-.2c-.2 0-.3 0-.4.2l-.9.5zm7.9 3.6h.5l.7-1.8.1-.1a3 3 0 0 1-.8-.4l.3.6-.8 1.7zm.3-24.7l.9-4.9-3.2 1.1v5.1l2.3-1.3zM33.6 11l2.2-.8-.9.7-1.2.6V11zm0 1.2l2-.7-.7.6-1.2.6v-.5zm0 1.3l1.7-.7s0 .2-.5.6l-1.2.6v-.5z"/><path class="st1" d="M29.7 18.7l.1.1h.7v.1l.1.3c.1.3.3.7.6.9.4.3.9.5 1.7.5 1.6 0 2.3-1 2.4-1.8v-.1h.7l.1-.1c.6-1 1.4-2.1 2.3-2.2L35.8 15l-3 1.6-3-1.6-2.4 1.4c.9.2 1.6 1.3 2.3 2.3"/><path class="st1" d="M32.6 15.6v-5.1l-3.2-1.1.9 4.9 2.3 1.3zM32 14l-1.2-.6c-.5-.3-.5-.6-.5-.6l1.7.7v.5zm0-3v.5l-1.2-.6-.9-.7 2.1.8zm0 1.2v.5l-1.2-.6-.7-.6 1.9.7zm.8-4.9c-1.9 0-3.2.6-3.5 1.3l3.5 1.4 3.5-1.4c-.3-.7-1.6-1.3-3.5-1.3m0-2.1c1.4 0 2.7.4 3.6.9l.5-1.3-.8.1-.7-1.4-1.3.7-1.4-1.4-1.4 1.4-1.3-.7-.7 1.4-.8-.1.5 1.3c1.1-.5 2.4-.9 3.8-.9m23.1 11.2c.5-.1.8-.2 1.3-.5-1-.3-3-1-4.7-.7-.6.1-.9.3-.7.4.9.6 2.1 2 2.9 3.7.7-.9.4-2.1.3-2.4 1.5.9 1.8 1.3 2.5 1.1l-1.6-1.6m-45 2.9c.8-1.7 2-3.1 2.9-3.7.2-.1-.1-.4-.7-.4-1.7-.3-3.8.4-4.7.7.5.3.8.5 1.3.5A12 12 0 0 0 8.1 18c.7.2 1.1-.3 2.5-1.1-.1.3-.4 1.5.3 2.4"/><path class="st3" d="M21.1 34.8c.7-.5 1.2-.8 1.2-2.1-1 .5-3.9.5-5.1-1.2-.3-.5 0-.7.3-.3.8.9 2.3.5 2.9.2l-.5-.9c.2-.2.8-.5.9-1-.3-.2-1.5-.3-1.5-.3.2-.2.4-.5.3-1.1-1.2.4-2.8-.1-3.1-.6-.3-.5 0-.9.3-.6.6.6 3.7 1.4 4.8.3a2 2 0 0 1-1-.7c1-.1 1.9-.7 2-1.5-.6 0-1.7 0-2.1-.3.5-.2.8-.4 1-.9-1.9-.1-2.1-1.5-2.1-1.8 1.3.7 3.5.4 2.9-1.4-1-.1-2.1-1.7.8-3.3 2.6-1.4 5.6-2.9 5.3-5.4-.2-1.6-2.8-2.7-3.1-3.5-1.1.5-1.3 1.1-.8 2.1 0 0-2.4.2-2.6-1.3-.1-.7.4-1.3.9-1.8-.3 0-2.1-.5-2.7 1-1-.7-1.9-.7-2.6.1 1.1.7 1.8 2.9 3.6 3.6-1.3.7-3.4.4-4.7-1.8-1.2 1.8-1.8 3.5.7 5.4-4.6 2.1-4.5 6-8.5 7.9.4 1.1 1.2 1.1 2.3.9-1.7 2.2-.3 4.6-3 5.5.3.9.8 1.6 1.8 1.4l-.9.9c1.5.9 3.2.3 3.6-2.7.1-.5.8-.2.6.3-1.7 3.5 2.6 6.1 1.1 8.7 1.3-.1 2.3-.2 2.9-.6.3.5.4 1.1.4 1.6.7-.1 1-.6 1.1-1.1.5 1.4 2.2 2.9 5 2.9-1.7-2.1-.4-4.2-2.4-6.6m-2.8 2.6l-.6 1c-.2-.7-.6-1.3-.8-1.8-.5 1-1.2 1-1.9 1 .2-2.3-2.8-4.7-1.5-7.4.3-.5.1-1.2-.5-1.5-2-1-1.1 3.2-3 3.3.4-.5.5-1.5.6-1.5-.4.1-1.4.7-1.9-.1 1.2-.6 1.5-1.6 1.7-2.5.2-1.2.3-1.8.6-2.2.2-.5.6-1 1.5-2.1-.2 0-2.4.5-2.9.3 3.8-2.4 3-5.3 8.8-8-1.5-1.1-3.1-2-2-4.2 1.6 1.9 4.6 1.3 6.3.4-1.6-.3-3.7-1.8-4.2-3.4.6-.1 1.4.6 1.9.9.2-.6.3-1.3 1-1.4-1 2 .9 3.1 2.7 3.1l1.4-.1c-.2-.4-.9-1.4-.4-1.8l1.4 1.1c3.5 2.7-1.7 5.2-3.8 6.3-3.3 1.8-2.4 3.9-1 4.4 0 .2-.2.3-.4.4-1 .3-1.9-.4-2.6-.8 0 1.3 0 2.6 1.4 3.3l-1 .4c.9.7 1.1 1 2.2 1.1-.5.2-1.1.2-1.6.3.1.4.2.9.5 1.2-2.1.3-3-1-3.7-.9-1.4.1-1.3 2.8 2.2 2.8l-.4.6s.7.4 1.3.5l-.6.6.6.5c-1.4.3-1.8-1.3-2.7-.5-1.4 1.1 1.7 3.5 4.7 3.1-.2.3-.9.8-1.2 1 2.4 2.3 1.2 4.4 2.2 6a4.8 4.8 0 0 1-4.3-3.4"/><path class="st3" d="M14.5 29c.5.5 1.1.6 2.3.5-1.3-.2-2-.5-2.4-1.3l-.1-1.4c0-1.3.4-2.9 1.3-4.7 0 1.1.9 2.8 2.8 3.1-1.7-.8-2.8-2.5-2.2-4.1l1.2-1.8.7-.8c-.2.8.8 1.7 1.5 1.9-.4-.4-1.2-1.5.7-3.5l-1.5.9c3.3-3.6 6.1-3.7 7.4-5.5a14.8 14.8 0 0 1-8.8 1.3c1.2.8 4.1.7 4.8.6-2.4 2.3-7.5 4.7-8.4 6.8 1.3-1.4 2.1-1.6 3.2-2a24 24 0 0 0-2.2 3.7c-1.4 3-3.2 3-3.3 5.5.6-1.9 1.9-2.4 2.8-3.6-.2.8-.2 1.7-.2 2.7 0 1.1.3 2.1.6 3-.1 1.2 0 3.3 1.4 4.7a7.3 7.3 0 0 1-1.1-3.9c1.1 2.1 4.2 5 5.7 7-1.7-2.8-5.4-5.7-6.2-9.1m34.4-10.1c1.1.4 1.9.6 3.1 2-.9-2.1-6-4.5-8.4-6.8.7.1 3.6.2 4.8-.6-2.2.6-7-.1-8.8-1.3 1.3 1.8 4 1.9 7.4 5.5l-1.5-.9c1.8 2 1 3.1.7 3.5.7-.1 1.7-1 1.5-1.9l.7.8 1.2 1.8c.6 1.7-.5 3.4-2.2 4.1 1.9-.3 2.8-2 2.8-3.1a9 9 0 0 1 1.3 4.7l-.1 1.4c-.4.8-1.2 1.2-2.4 1.3 1.2.1 1.8 0 2.3-.5-.8 3.4-4.5 6.3-6 8.8 1.5-2 4.6-4.9 5.7-7 .1.8-.1 2.7-1.1 3.9 1.4-1.4 1.5-3.4 1.4-4.7a7 7 0 0 0 .6-3c0-1 0-1.9-.2-2.7.9 1.2 2.1 1.7 2.8 3.6-.1-2.5-2-2.5-3.3-5.5l-2.3-3.4"/><path class="st3" d="M54.8 24.5c1.1.2 1.9.2 2.3-.9-4-1.9-3.9-5.9-8.5-7.9 2.5-1.9 1.8-3.6.7-5.4-1.2 2.2-3.4 2.5-4.7 1.8 1.8-.7 2.5-2.9 3.6-3.6-.7-.7-1.6-.8-2.6-.1-.6-1.5-2.4-1-2.7-1 .5.5.9 1.1.9 1.8-.2 1.5-2.6 1.3-2.6 1.3.5-1 .3-1.6-.8-2.1-.3.8-3 1.9-3.1 3.5-.3 2.5 2.7 4 5.3 5.4 2.9 1.5 1.8 3.2.8 3.3-.6 1.8 1.6 2.1 2.9 1.4 0 .2-.2 1.7-2.1 1.8.2.6.5.7 1 .9-.4.3-1.5.3-2.1.3.1.8.9 1.4 2 1.5a2 2 0 0 1-1 .7c1.1 1.1 4.2.4 4.8-.3.3-.3.6.1.3.6-.4.5-1.9 1-3.1.6-.1.7.1 1 .3 1.1 0 0-1.2.1-1.5.3.1.5.7.8.9 1-.2.2-.5.6-.5.9.6.3 2.1.7 2.9-.2.3-.4.7-.1.4.3-1.2 1.6-4.1 1.7-5.1 1.2 0 1.3.5 1.6 1.2 2.1-2.1 2.4-.7 4.5-2.2 6.6 2.8 0 4.5-1.5 5-2.9.1.5.3.9 1.1 1.1-.1-.5.1-1.1.4-1.6.6.4 1.6.6 2.9.6-1.5-2.6 2.8-5.2 1.1-8.7-.3-.5.5-.9.6-.3.4 3 2.2 3.7 3.6 2.7l-.9-.9c1 .3 1.5-.5 1.8-1.4-3-.9-1.5-3.3-3.3-5.5m.3 6c.1.1.2 1.1.6 1.5-2-.1-1.1-4.3-3-3.3-.6.3-.7.9-.5 1.5 1.3 2.7-1.6 5-1.5 7.4-.7 0-1.5 0-2-1l-.8 1.8-.6-1a4.3 4.3 0 0 1-4 3.3c1-1.6-.2-3.7 2.2-6l-1.3-1c3 .3 6.1-2 4.7-3.1-.9-.7-1.3.8-2.7.5l.6-.5-.7-.6c.6-.1 1.3-.5 1.3-.5l-.4-.6c3.5 0 3.6-2.7 2.2-2.8-.7 0-1.5 1.2-3.7.9.3-.3.4-.8.5-1.2-.5 0-1.1 0-1.6-.3 1-.1 1.3-.5 2.2-1.1l-1-.4c1.5-.7 1.4-2 1.4-3.3-.8.4-1.7 1.1-2.6.8-.2-.1-.4-.2-.4-.4 1.4-.5 2.3-2.7-1-4.4-2.1-1.1-7.2-3.6-3.8-6.3l1.4-1.1c.5.4-.2 1.5-.4 1.8l1.4.1c1.8 0 3.7-1.1 2.7-3.1.7.1.8.8 1 1.4.5-.3 1.2-1 1.9-.9-.5 1.6-2.6 3-4.2 3.4 1.6.9 4.7 1.6 6.3-.4 1.1 2.2-.4 3.1-2 4.2 5.8 2.7 5 5.7 8.8 8-.5.2-2.7-.2-2.9-.3.8 1.1 1.2 1.5 1.5 2.1l.6 2.2c.2.9.5 1.9 1.7 2.5-.5.9-1.5.3-1.9.2M27.2 37l.8-.7-.1-.3c-.1-.2 0-.2.1-.3l.4-.3h.3l1.3.3h-1.4c-.3 0-.4.1-.5.4l-.1.2-.3.7c-.1.3-.2.6.1 1l.3.3-.5 1h.4l.4-.7s.6-.5.7-1c-.2-.1-.3-.2-.2-.4l.2-.3c.1-.1.1-.2.2-.1l1.4.3c.2 0 .4.1.6-.2.2-.3.2-.3.7-.2l.7.1c1 .1 1.9-.2 2.3-.4l.5.8-.1.4-.8 1.9h1.2l.7-1.7.2-.4-.4 2.1h1.2l.3-2.1c.1-.5 0-.6-.2-.8-.5-.4-.5-1.3-.6-1.8l.3-.1c.3 0 .5.7.8 1.1.6.9 1.4 1.8 2.4.5l-.3-.4-.3-.3-1.2-1.3c-.7-.7-1.8-.6-2.2-.3-1-.5-2 0-2.2 0l-1.7-.1c-.1 0-.2 0-.3-.2l.3-.1c-.3-1.2-1-2.2-2.3-2.4 0 0-.1-.4-.3-.5l-.4.4-.3.1-1.6-.6 1.2 1.2-.8 1.1v.5l.2.3c.1.2.3.2.5.1l.3-.1c.1-.1.5.1.7-.1l-.2 1-1.1-.1-.5.1-.9.7c-.3.2-.4.6-.2 1l.3.7zm9.1.2l-.8 1.8H35l.7-1.8c.1-.2-.1-.3-.3-.6l.8.4.1.2m-7.2-3.9l-.2.1h-.3l-.1-.1V33l.9-1.1-.8-.7 1.1.4.4-.5.1.4c.4 0 1.7.6 1.7 2.2 0 0 .3.4.6.4l1.8.1c.3 0 1.1-.6 2.1 0 .2-.1.5-.3.8-.3.9-.1 1.5.5 2 1.2l.8 1.1-.6.3c-.3-.1-.3-.3-.4-.6-.1-.5-.6-.8-.6-.8.2.3.2.7.3 1-.7-.7-.9-1.6-1.4-1.7-.2-.1-.5 0-.7.3.3.6.2 1.3.5 1.7l.3.4c.2.2.1.4.1.6l-.3 1.6h-.5l.3-1.7c.1-.5-1.3-.5-2.1-1.5-.6.7-2.4.5-3.1.4-.3 0-.6 0-.8.3-.1.2-.3.1-.4.1l-1.4-.3c-.2-.1-.3 0-.5.2l-.3.6c-.1.1-.1.2.1.3l.1.1-.3.5-.3-.3c-.1-.2-.2-.4 0-.7l.4-.9c.1-.1.1-.2.3-.2h1.7l-.4-.8c-.4-.6.3-1.8.2-2.3-.1.7-1 .4-1.1.5m-1.9 2.1l.8-.6.4-.2 1.1.2.2.5-1.2-.3-.4.1-.6.4-.1.4.1.2-.4.3-.2-.3c.1-.2.1-.5.3-.7m3.6-22l1.2.6v-.5l-1.7-.7s0 .2.5.6m1.2-.7v-.5l-2-.7.7.6 1.3.6m0-1.1V11l-2.2-.8.9.7 1.3.7"/><path class="st3" d="M38.1 18.7h2.2c-.1-.3-.4-.6-1.1-.6-.6 0-1 .3-1.1.6m-2.3-8.5l-2.2.8v.5l1.2-.6 1-.7m-.5 2.6l-1.7.7v.5l1.2-.6c.5-.4.5-.6.5-.6m.3-1.3l-2 .7v.5l1.2-.6.8-.6m-9.2 6.6c-.6 0-1 .3-1.1.6h2.2c-.1-.3-.5-.6-1.1-.6"/><path class="st3" d="M37.2 8.8c0-1.2-2.1-2.3-4.4-2.3-2.3 0-4.4 1.1-4.4 2.3v.3l.9 5.3-4.3 2.5c-.5.3-1 1-1.1 1.8h.8c.1-.8.7-1.6 1.8-1.5 1 .1 1.6.7 2.2 1.5l.2.2.2.3h-6.4c.5.9.9 1.9.9 3v13.3c0 3.4 2.6 5 5.5 5 2.2 0 2.5-.1 3.7 1.1 1.2-1.2 1.5-1.1 3.7-1.1 2.8 0 5.5-1.6 5.5-5V22.3c0-1.1.4-2.1.9-3h-6.4l.2-.3.2-.2c.6-.9 1.2-1.5 2.2-1.5 1.1-.1 1.7.8 1.8 1.5h.8a3 3 0 0 0-1.1-1.8l-4.3-2.5.9-5.3v-.4zm-7.9.6l3.2 1.1v5.1l-2.4-1.3-.8-4.9zm.8 10.8c.4.6 1.1 1 1.9 1.2.1.3.2.6.6.9-.1.9.3 1.8 1.2 2 .1.5.4.8.9 1l-.7.7c-.3.3-.6.4-.9.4l-3-.3c.1-.3-.2-.7-1.2-.6l1.2-3.3-.7-1.5-1.4 1.1-.1 3.5-.5-.3c-.8-.3-1 1.1-.3 1.1h.3l.1.3c-.1.1-.2.3 0 .4-.2.1-.2.3-.1.5-.2.3-.2.8.4 1 .4.1.7-.4.8-.6l4.7 1.5c.7.2 1.1.1 1.7-.4l1.2-1.1c-.2.7.1 1.3.6 1.5l-.1.9H24.6v-7.7c0-.7-.2-1.4-.5-2.1h6zm5.1 2.9c-.3.5-.2 1.1.1 1.6l-.3.2c-.9-.1-1.2-1.4-1.2-1.4v.4c-.5-.2-.8-.6-.8-1.3l.6.2.1-.4c-.6-.1-1-.5-1.1-.9h-.1.3l1-.2c.3.4.7.6 1.2.7-.1.3 0 .7.2 1.1m1.3 3.5l-.2.4-.5.5c.1-.7-.4-1.6-.8-1.9l.5-.5.1.1c-.2.4.2 1.3.9 1.4m-2.4-.2l.4-.4c.4.4 1 1.2.8 1.9l-.4.4-.3.2c.2-.7-.1-1.7-.5-2.1m-.9.3l.5-.1c.3.4.6 1.4.2 2.1l-.6-.1h-.2c.3-.5.3-1.3.1-1.9m-1-.1l.6.1c.1.5 0 1.3-.3 1.8l-.7-.2c.3-.5.5-1.3.4-1.7m-1.2-.2l.7.1a3 3 0 0 1-.3 1.6l-.7-.2c.3-.4.4-1 .3-1.5m-2.8-.1c-.3.1-.5-.1-.5-.3.6-.2.9-.1 1.1 0l.5.6-.2.9c-.6-.2-.7-.7-.4-1.1-.1-.2-.2-.2-.5-.1m-.4 1.2l.4.1c0 .1-.1.3-.3.2-.1 0-.2-.2-.1-.3m-.7-1.8c-.2-.1-.1-.3.1-.3l.7.3s-.6.1-.8 0m.7 1.3l.6.1v.1c-.2.2-.7.1-.6-.2m.5-.3c-.3.1-.6 0-.5-.2l.5.1v.1zm.5-3.4l-.6 2.1.2-3.4.9-.8.5 1-1.1 3.3.3-2.2c-.1-.2-.2-.2-.2 0m0 2.5h.8c.1.1 0 .3-.1.3l-.7-.3m1 .5l.7.1c.1.4 0 1-.3 1.4l-.7-.2.3-1.3m11.3 9.3c0 1.6-.7 2.8-2 3.5l.4-.9h-.4l-.6 1.2c-.6.2-1.3.3-2 .3-2.3 0-2.9.1-3.7.9-.8-.8-1.4-.9-3.7-.9-.7 0-1.4-.1-2-.3l.6-1.2h-.4l-.5 1-.3-.2.4-.8h-.4l-.3.6c-1-.7-1.5-1.8-1.5-3.2v-5.1h16.5v5.1zm.4-15.4c-.3.7-.5 1.4-.5 2.1V30h-.9c-.4-.4-.8-1.7-.8-1.7-.2.5 0 1.4.3 1.7h-1.2c-.3-.4-.5-1.8-.5-1.8-.3.4-.1 1.5.1 1.8h-.8l.1-1.1c-.4-.1-.8-.3-.8-.7.2.2.3.2.6.2l.3-.3c-1.1 0-1.1-1.2-.3-1.7-.9 0-1.5-.5-1.2-1.4-.6-.3-.8-1.4-.4-1.8-.3-.4-.4-1.1-.2-1.5-.4 0-.9-.2-1.2-.5H34c.5-.2 1-.6 1.3-1h6.2zm-3.3-3.7c-.9.2-1.7 1.2-2.3 2.2l-.1.1h-.7v.1c-.1.8-.8 1.8-2.4 1.8-.7 0-1.3-.2-1.7-.5l-.6-.9-.1-.3v-.1h-.7l-.1-.1c-.6-1-1.4-2.1-2.3-2.2l2.4-1.4 3 1.6 3-1.6 2.6 1.3zm-2.8-2.2L33 15.6v-5.1l3.2-1.1-.8 4.9zM32.8 10l-3.5-1.4c.3-.7 1.7-1.3 3.5-1.3 1.9 0 3.2.6 3.5 1.3L32.8 10z"/><path class="st3" d="M40.7 25.2v-.4c-1.2 0-1.5-1.4-1.5-1.4-.3 1 .6 1.8 1.5 1.8m-1.5 2.4l-.1-.4c-1 .3-1.5-1.3-1.5-1.3-.4 1.1.7 1.9 1.6 1.7m.7-1.5c-1.2.2-1.7-1.2-1.7-1.2-.1.8.4 1.5 1.2 1.6-.2 1 .7 1.5 1.6 1.2l-.1-.3c-.8.1-1.5-.6-1-1.3m-.7-4.1v-.4c-1.6-.3-1.5-1.4-1.5-1.4-.3 1.1.6 1.8 1.5 1.8M29 38.2l-.6 1.1h.5l.5-1.1zm.9 0l-.6 1.1h.4l.6-1.1zm3.4 0l-.5 1.1h.4l.6-1.1zm.9 0l-.6 1.1h.5l.5-1.1zm-1.7 0l-.6 1.1h.4l.6-1.1zm5 1.1h.5l.5-1.1h-.4zm-6.8-1.1l-.5 1.1h.4l.6-1.1zm.9 0l-.6 1.1h.5l.5-1.1zm-2-6.3l-.1.2.1.2.2-.2-.2-.2m3.2-26.2c1.8 0 3.2.6 4 1.2 0 0 .2-1.4 1-2.6l-1.4.2-.7-1.6-1.4.7-1.4-1.4-1.4 1.4-1.5-.8-.7 1.6-1.4-.2a7 7 0 0 1 1 2.6 7 7 0 0 1 3.9-1.1m-3.3-.6l.7-1.4 1.3.7L32.9 3l1.4 1.4 1.3-.7.7 1.4.7-.2-.5 1.3a7.6 7.6 0 0 0-7.2 0l-.5-1.3.7.2z"/><path class="st3" d="M34.3 2.8c.2 0 .4-.1.4-.3l-.3-.8s-.5.5-.5.7c0 .2.2.4.4.4m2.3.9c.2.1.4 0 .5-.2.1-.2 0-.8 0-.8l-.6.5c-.1.2-.1.4.1.5m-5.3-.9c.2 0 .4-.2.3-.4 0-.2-.5-.7-.5-.7l-.3.8c.2.2.3.4.5.3m-2.3.9c.2-.1.3-.3.2-.5-.1-.2-.7-.5-.7-.5s-.1.6 0 .8c.1.2.3.3.5.2m28.1 12.9c.5-.2.9-.7 1.1-1.1-1.3-.2-4.6-1.6-7.4-.4 1-1 2-1.1 2.1-2.5.4.3 1.2.5 1.6-.3-.3-.8-1-.2-1.1-.4-.1-.3.9.1 1.1-1-.8-.3-1.1.4-1.2.2-.1-.1.5-.4 0-1.3-.9.5-.4 1.1-.6 1.1-.2.1 0-.6-1-.6-.1 1 .9 1 .7 1.2-.2.2-.5-.6-1.2-.2 0 .8.7 1.3 1.4 1.1-.1 1.6-1.5 1.3-2.6 3 2.2 1.2 3.3 3.2 4.7 4.6.5-.3 1.2-1.8 1.2-1.8 1.5 1.2 2.6 0 2.6 0-.6-.5-.6-.9-1.4-1.6m-2.1.3c.2.3.5 1.5-.3 2.4-.8-1.7-2-3.1-2.9-3.7-.2-.1.1-.4.7-.4 1.7-.3 3.8.4 4.7.7-.4.3-.8.5-1.3.5a12 12 0 0 1 1.6 1.6c-.7.2-1.1-.2-2.5-1.1M40.5 42.8v-1.9c-1.5.7-3.3 1.2-5.7 1.4l-.1.7.8.1-2.7.2-2.7-.2.8-.1-.1-.7c-2.4-.2-4.3-.8-5.7-1.4v1.9l-2 .8c1.5.8 3.2 1.4 5.1 1.9l-.2.8c1.1.3 2.9.7 4.8.7s3.7-.3 4.8-.7l-.2-.8c2-.5 3.7-1.1 5.1-1.9l-2-.8zm-16.3.9l1.3-.5v-1.5c.9.3 2 .7 3.6 1l-.8 2.5-4.1-1.5m8.6 2.8c-1.5 0-3-.2-4.3-.5l.8-2.6a20.1 20.1 0 0 0 7 0l.8 2.6c-1.3.3-2.8.5-4.3.5m4.4-1.4l-.8-2.5c1.6-.3 2.8-.7 3.6-1v1.5l1.3.5c-1 .6-2.4 1.1-4.1 1.5M9.7 18.2s.8 1.4 1.2 1.8c1.4-1.4 2.4-3.4 4.7-4.6-1.1-1.8-2.5-1.5-2.6-3 .7.2 1.3-.3 1.4-1.1-.7-.4-1 .4-1.2.2-.2-.2.8-.2.7-1.2-.9 0-.8.7-1 .6-.2-.1.3-.6-.6-1.1-.5.9.2 1.2 0 1.3-.1.2-.4-.5-1.2-.2.2 1.1 1.3.7 1.1 1-.1.2-.8-.5-1.1.4.4.7 1.1.6 1.6.3.1 1.4 1 1.5 2.1 2.5-2.8-1.2-6.2.3-7.4.4.2.4.6.9 1.1 1.1-.8.7-.8 1.1-1.3 1.7 0-.1 1 1.1 2.5-.1M8.1 18l1.6-1.6c-.5-.1-.8-.2-1.3-.5 1-.3 3-1 4.7-.7.6.1.9.3.7.4-.9.6-2.1 2-2.9 3.7-.7-.9-.4-2.1-.3-2.4-1.4.9-1.8 1.3-2.5 1.1m23.5-.8v.8c.3-.3.8-.3.8-.3v1.2s0 .6-.2.8h1.2c-.2-.3-.2-.8-.2-.8v-1.2s.6-.1.8.3v-.8h-2.4z"/></svg>