<svg xmlns="http://www.w3.org/2000/svg" viewBox="0 0 166 48"><path d="M118.9 26.6c-1.1 0-2.2.3-3.1.8l-11.4-17-12.5 13.8-8.8-13.7-13.2 15.4.1-1.4c0-3.8-1.3-7.2-3.5-9.9L43.1 35.2a15.3 15.3 0 0 0 17.5 3.7c2.2-.9 4.3-2.2 6-4.1l7.8-8.9L83 39.4l12.3-13.6 9 13.8 8.4-8.4h.1c-.2.5-.2 1.1-.2 1.7 0 3.6 2.9 6.5 6.4 6.5l1.5-.2c1.8-.3 2.9-.9 4.5-2.2l11.6-12.5c.1 8.6 7 15.6 15.5 15.6 6.3 0 11.7-3.8 14.1-9.3h-3.6c-6 7.2-15.3 8.1-20.4-.3l11.5-11.9c0-.1-.6 1.6-.5 1.9 0 2.7.7 3.9 3.1 5.3 8.3 2.8 12.6-10.5 2.9-15.4a14.4 14.4 0 0 0-7.1-1.8c-6.4 0-12 4-14.3 9.7l-5.7-8.2-18 .1 13.1 20-1.7 1.9a7 7 0 0 0-6.6-5.5zM54.5 8.8A15.7 15.7 0 0 0 40 30l-6.9 6c-.2.2-.5.2-.7 0L19.7 20.8v-.2l8.7-10.9c.1 1.3 2.2 5.2 6.1 5.4 2.8.1 5.1-1.3 6.2-3.3a6.8 6.8 0 0 0-.8-8.2 7.1 7.1 0 0 0-6-2.1c-2.4.3-4 1.3-5.7 3.1l-8.9 10.9V2.9L0 11.9v34.5l19.3-9.2V25.9l13 14.5c.2.2.4.2.6 0l8.4-7.4 23.1-20.3-.5-.3a13.8 13.8 0 0 0-9.4-3.6zm3.9 16.5c2.9 0 5.2 2.5 5.2 5.5s-2.4 5.5-5.2 5.5c-2.9 0-5.2-2.5-5.2-5.5s2.3-5.5 5.2-5.5z" fill="#ab4f46"/></svg>